<?xml version="1.0" encoding="UTF-8"?>
<svg xmlns="http://www.w3.org/2000/svg" xmlns:xlink="http://www.w3.org/1999/xlink" width="14pt" height="18pt" viewBox="0 0 14 18" version="1.1">
<g id="surface1">
<path style=" stroke:none;fill-rule:nonzero;fill:rgb(0%,0%,0%);fill-opacity:1;" d="M 6.632812 9.003906 C 6.449219 8.441406 6.453125 7.355469 6.558594 7.355469 C 6.863281 7.355469 6.835938 8.652344 6.632812 9.003906 Z M 6.570312 10.664062 C 6.289062 11.375 5.9375 12.183594 5.535156 12.867188 C 6.203125 12.621094 6.957031 12.261719 7.828125 12.097656 C 7.363281 11.757812 6.917969 11.273438 6.570312 10.664062 Z M 3.140625 15.050781 C 3.140625 15.078125 3.621094 14.859375 4.410156 13.636719 C 4.167969 13.859375 3.351562 14.5 3.140625 15.050781 Z M 9.042969 5.625 L 14 5.625 L 14 17.15625 C 14 17.625 13.609375 18 13.125 18 L 0.875 18 C 0.390625 18 0 17.625 0 17.15625 L 0 0.84375 C 0 0.375 0.390625 0 0.875 0 L 8.167969 0 L 8.167969 4.78125 C 8.167969 5.246094 8.558594 5.625 9.042969 5.625 Z M 8.75 11.664062 C 8.019531 11.234375 7.535156 10.644531 7.191406 9.773438 C 7.355469 9.125 7.617188 8.136719 7.417969 7.515625 C 7.246094 6.484375 5.875 6.585938 5.675781 7.277344 C 5.496094 7.921875 5.660156 8.828125 5.972656 9.984375 C 5.550781 10.953125 4.925781 12.253906 4.484375 13 C 4.480469 13 4.480469 13.003906 4.476562 13.003906 C 3.488281 13.492188 1.792969 14.570312 2.488281 15.394531 C 2.695312 15.636719 3.074219 15.746094 3.273438 15.746094 C 3.925781 15.746094 4.574219 15.113281 5.5 13.574219 C 6.441406 13.273438 7.472656 12.902344 8.382812 12.757812 C 9.171875 13.171875 10.097656 13.445312 10.714844 13.445312 C 11.78125 13.445312 11.851562 12.320312 11.433594 11.917969 C 10.925781 11.441406 9.453125 11.578125 8.75 11.664062 Z M 13.746094 3.691406 L 10.171875 0.246094 C 10.007812 0.0859375 9.785156 0 9.550781 0 L 9.332031 0 L 9.332031 4.5 L 14 4.5 L 14 4.285156 C 14 4.0625 13.910156 3.851562 13.746094 3.691406 Z M 11.042969 12.667969 C 11.191406 12.570312 10.953125 12.25 9.484375 12.351562 C 10.835938 12.90625 11.042969 12.667969 11.042969 12.667969 Z M 11.042969 12.667969 "/>
</g>
</svg>
