<?xml version="1.0" encoding="UTF-8"?>
<svg xmlns="http://www.w3.org/2000/svg" xmlns:xlink="http://www.w3.org/1999/xlink" width="10pt" height="13pt" viewBox="0 0 10 13" version="1.1">
<g id="surface1">
<path style=" stroke:none;fill-rule:nonzero;fill:rgb(0%,0%,0%);fill-opacity:1;" d="M 4.738281 6.503906 C 4.605469 6.097656 4.609375 5.3125 4.683594 5.3125 C 4.902344 5.3125 4.882812 6.25 4.738281 6.503906 Z M 4.691406 7.699219 C 4.492188 8.214844 4.242188 8.800781 3.953125 9.292969 C 4.429688 9.117188 4.96875 8.855469 5.589844 8.738281 C 5.261719 8.492188 4.941406 8.144531 4.691406 7.699219 Z M 2.242188 10.871094 C 2.242188 10.890625 2.585938 10.734375 3.152344 9.847656 C 2.976562 10.007812 2.394531 10.472656 2.242188 10.871094 Z M 6.457031 4.0625 L 10 4.0625 L 10 12.390625 C 10 12.726562 9.722656 13 9.375 13 L 0.625 13 C 0.277344 13 0 12.726562 0 12.390625 L 0 0.609375 C 0 0.273438 0.277344 0 0.625 0 L 5.832031 0 L 5.832031 3.453125 C 5.832031 3.789062 6.113281 4.0625 6.457031 4.0625 Z M 6.25 8.425781 C 5.730469 8.113281 5.382812 7.6875 5.136719 7.058594 C 5.253906 6.589844 5.441406 5.875 5.300781 5.429688 C 5.175781 4.683594 4.195312 4.753906 4.054688 5.257812 C 3.925781 5.71875 4.042969 6.375 4.265625 7.210938 C 3.964844 7.910156 3.519531 8.851562 3.203125 9.390625 C 3.199219 9.390625 3.199219 9.390625 3.199219 9.390625 C 2.492188 9.746094 1.28125 10.523438 1.777344 11.117188 C 1.925781 11.292969 2.195312 11.371094 2.339844 11.371094 C 2.804688 11.371094 3.269531 10.914062 3.929688 9.804688 C 4.601562 9.585938 5.339844 9.320312 5.988281 9.214844 C 6.550781 9.515625 7.214844 9.710938 7.652344 9.710938 C 8.414062 9.710938 8.464844 8.898438 8.167969 8.609375 C 7.804688 8.261719 6.753906 8.359375 6.25 8.425781 Z M 9.816406 2.664062 L 7.265625 0.179688 C 7.148438 0.0625 6.988281 0 6.824219 0 L 6.667969 0 L 6.667969 3.25 L 10 3.25 L 10 3.09375 C 10 2.933594 9.933594 2.78125 9.816406 2.664062 Z M 7.886719 9.148438 C 7.996094 9.078125 7.824219 8.847656 6.773438 8.917969 C 7.738281 9.320312 7.886719 9.148438 7.886719 9.148438 Z M 7.886719 9.148438 "/>
</g>
</svg>
